<?xml version="1.0" encoding="UTF-8" standalone="no"?>
<svg width="500px" height="500px" viewBox="0 0 500 500" version="1.1" xmlns="http://www.w3.org/2000/svg" xmlns:xlink="http://www.w3.org/1999/xlink">
    <!-- Generator: Sketch 49.1 (51147) - http://www.bohemiancoding.com/sketch -->
    <title>if-logo-1</title>
    <desc>Created with Sketch.</desc>
    <defs>
        <path d="M425,175 L425,175 C425,119.771525 380.228475,75 325,75 L325,75 C269.771525,75 225,119.771525 225,175 L225,325 C225,352.614237 202.614237,375 175,375 L175,375 C147.385763,375 125,352.614237 125,325 L125,275 L75,275 L75,325 C75,380.228475 119.771525,425 175,425 L175,425 C230.228475,425 275,380.228475 275,325 L275,250 L325,250 L325,200 L275,200 L275,175 C275,147.385763 297.385763,125 325,125 L325,125 C352.614237,125 375,147.385763 375,175 L425,175 Z" id="path-1"></path>
        <filter x="-4.6%" y="-4.6%" width="110.3%" height="110.3%" filterUnits="objectBoundingBox" id="filter-2">
            <feMorphology radius="2" operator="dilate" in="SourceAlpha" result="shadowSpreadOuter1"></feMorphology>
            <feOffset dx="2" dy="2" in="shadowSpreadOuter1" result="shadowOffsetOuter1"></feOffset>
            <feGaussianBlur stdDeviation="5" in="shadowOffsetOuter1" result="shadowBlurOuter1"></feGaussianBlur>
            <feComposite in="shadowBlurOuter1" in2="SourceAlpha" operator="out" result="shadowBlurOuter1"></feComposite>
            <feColorMatrix values="0 0 0 0 0   0 0 0 0 0   0 0 0 0 0  0 0 0 0.274937726 0" type="matrix" in="shadowBlurOuter1"></feColorMatrix>
        </filter>
        <circle id="path-3" cx="100" cy="197" r="25"></circle>
        <filter x="-32.0%" y="-32.0%" width="172.0%" height="172.0%" filterUnits="objectBoundingBox" id="filter-4">
            <feMorphology radius="2" operator="dilate" in="SourceAlpha" result="shadowSpreadOuter1"></feMorphology>
            <feOffset dx="2" dy="2" in="shadowSpreadOuter1" result="shadowOffsetOuter1"></feOffset>
            <feGaussianBlur stdDeviation="5" in="shadowOffsetOuter1" result="shadowBlurOuter1"></feGaussianBlur>
            <feComposite in="shadowBlurOuter1" in2="SourceAlpha" operator="out" result="shadowBlurOuter1"></feComposite>
            <feColorMatrix values="0 0 0 0 0   0 0 0 0 0   0 0 0 0 0  0 0 0 0.274937726 0" type="matrix" in="shadowBlurOuter1"></feColorMatrix>
        </filter>
    </defs>
    <g id="if-logo-1" stroke="none" stroke-width="1" fill="none" fill-rule="evenodd">
        <g id="Path">
            <use fill="black" fill-opacity="1" filter="url(#filter-2)" xlink:href="#path-1"></use>
            <use stroke="#1356A3" stroke-width="4" fill="#5C9BE4" fill-rule="evenodd" xlink:href="#path-1"></use>
        </g>
        <g id="Oval">
            <use fill="black" fill-opacity="1" filter="url(#filter-4)" xlink:href="#path-3"></use>
            <use stroke="#1356A3" stroke-width="4" fill="#5C9BE4" fill-rule="evenodd" xlink:href="#path-3"></use>
        </g>
    </g>
</svg>