<?xml version="1.0" encoding="UTF-8" standalone="no"?>
<svg width="100px" height="100px" viewBox="0 0 100 100" version="1.1" xmlns="http://www.w3.org/2000/svg" xmlns:xlink="http://www.w3.org/1999/xlink">
    <!-- Generator: Sketch 50 (54983) - http://www.bohemiancoding.com/sketch -->
    <title>logo-2</title>
    <desc>Created with Sketch.</desc>
    <defs>
        <path d="M41.15625,60.7709332 L13.65625,44.5131207 C11.421875,43.1928082 8,44.4740582 8,47.7396832 L8,80.2474957 C8,83.1771832 11.1796875,84.9428082 13.65625,83.4740582 L41.15625,67.2240582 C43.609375,65.7787457 43.6171875,62.2162457 41.15625,60.7709332 Z" id="path-1"></path>
        <filter x="-20.0%" y="-12.5%" width="140.0%" height="135.0%" filterUnits="objectBoundingBox" id="filter-2">
            <feOffset dx="0" dy="2" in="SourceAlpha" result="shadowOffsetOuter1"></feOffset>
            <feGaussianBlur stdDeviation="2" in="shadowOffsetOuter1" result="shadowBlurOuter1"></feGaussianBlur>
            <feColorMatrix values="0 0 0 0 0   0 0 0 0 0   0 0 0 0 0  0 0 0 0.5 0" type="matrix" in="shadowBlurOuter1"></feColorMatrix>
        </filter>
    </defs>
    <g id="logo-2" stroke="none" stroke-width="1" fill="none" fill-rule="evenodd">
        <g id="Group" transform="translate(50.500000, 45.500000) rotate(-30.000000) translate(-50.500000, -45.500000) translate(25.000000, 0.000000)" fill-rule="nonzero">
            <path d="M41.15625,23.7709332 L13.65625,7.5131207 C11.421875,6.1928082 8,7.4740582 8,10.7396832 L8,43.2474957 C8,46.1771832 11.1796875,47.9428082 13.65625,46.4740582 L41.15625,30.2240582 C43.609375,28.7787457 43.6171875,25.2162457 41.15625,23.7709332 Z" id="Shape" fill-opacity="0.4" fill="#444444" transform="translate(25.499512, 27.000812) rotate(30.000000) translate(-25.499512, -27.000812) "></path>
            <path d="M41.15625,36.1042665 L13.65625,19.846454 C11.421875,18.5261415 8,19.8073915 8,23.0730165 L8,55.580829 C8,58.5105165 11.1796875,60.2761415 13.65625,58.8073915 L41.15625,42.5573915 C43.609375,41.112079 43.6171875,37.549579 41.15625,36.1042665 Z" id="Shape" fill-opacity="0.6" fill="#666666" transform="translate(25.499512, 39.334145) rotate(30.000000) translate(-25.499512, -39.334145) "></path>
            <path d="M41.15625,48.4375999 L13.65625,32.1797874 C11.421875,30.8594749 8,32.1407249 8,35.4063499 L8,67.9141624 C8,70.8438499 11.1796875,72.6094749 13.65625,71.1407249 L41.15625,54.8907249 C43.609375,53.4454124 43.6171875,49.8829124 41.15625,48.4375999 Z" id="Shape" fill-opacity="0.7" fill="#D0D0D0" transform="translate(25.499512, 51.667479) rotate(30.000000) translate(-25.499512, -51.667479) "></path>
            <g id="Shape" transform="translate(25.499512, 64.000812) rotate(30.000000) translate(-25.499512, -64.000812) ">
                <use fill="black" fill-opacity="1" filter="url(#filter-2)" xlink:href="#path-1"></use>
                <use fill="#FFFFFF" fill-rule="evenodd" xlink:href="#path-1"></use>
            </g>
        </g>
    </g>
</svg>