<?xml version="1.0" encoding="UTF-8"?>
<svg width="200px" height="400px" viewBox="0 0 200 400" version="1.1" xmlns="http://www.w3.org/2000/svg" xmlns:xlink="http://www.w3.org/1999/xlink">
    <!-- Generator: Sketch 52.5 (67469) - http://www.bohemiancoding.com/sketch -->
    <title>icon_sort_1</title>
    <desc>Created with Sketch.</desc>
    <defs>
        <linearGradient x1="-34.1718948%" y1="51.9629296%" x2="50%" y2="51.9629296%" id="linearGradient-1">
            <stop stop-color="#000000" stop-opacity="0" offset="0%"></stop>
            <stop stop-color="#1DB954" offset="100%"></stop>
        </linearGradient>
        <linearGradient x1="134.395716%" y1="51.9629296%" x2="50%" y2="51.9629296%" id="linearGradient-2">
            <stop stop-color="#000000" stop-opacity="0" offset="0%"></stop>
            <stop stop-color="#FFFFFF" offset="100%"></stop>
        </linearGradient>
    </defs>
    <g id="icon_sort_1" stroke="none" stroke-width="1" fill="none" fill-rule="evenodd">
        <g id="Group-4" transform="translate(37.500000, 83.281553)" fill-rule="nonzero">
            <g id="arrow-up" transform="translate(2.804613, 0.186885)">
                <path d="M107.309677,43.2075847 L24.7046485,-5.62794483 C17.9929899,-9.59392488 7.71429604,-5.74528152 7.71429604,4.0640656 L7.71429604,101.711657 C7.71429604,110.511909 17.2655024,115.815527 24.7046485,111.403668 L107.309677,62.5916056 C114.678421,58.2501481 114.701888,47.5490422 107.309677,43.2075847 Z" id="Mask" transform="translate(60.279667, 52.909557) rotate(-90.000000) translate(-60.279667, -52.909557) "></path>
                <path d="M51.8446005,4.12108564 L51.8446005,105.474928 L45.8367182,105.474928 L45.8367182,13.8988838 L50.5776952,5.87954727 C50.9547941,5.23746005 51.3798743,4.65132155 51.8446005,4.12108564 Z M57.2757261,0.739849794 C59.237507,0.208818053 61.3226667,0.212547307 63.2836093,0.749667099 L63.2836085,105.474928 L57.2757261,105.474928 L57.2757261,0.739851055 Z M68.7147341,4.1484473 C69.1716912,4.67160806 69.5900127,5.24865611 69.9617161,5.87954727 L74.7226165,13.9364556 L74.7226165,105.474928 L68.7147341,105.474928 L68.7147341,4.1484473 Z M80.1537421,23.1275913 L86.1616244,33.2947768 L86.1616244,105.474928 L80.1537421,105.474928 L80.1537421,23.1275913 Z M91.5927501,42.4859124 L97.6006324,52.6530979 L97.6006324,105.474928 L91.5927501,105.474928 L91.5927501,42.4859124 Z M103.031758,61.8442336 L109.03964,72.0114191 L109.03964,105.474928 L103.031758,105.474928 L103.031758,61.8442336 Z M114.470766,81.2025548 L118.773778,88.4845756 C122.18216,94.2316873 119.79202,101.239347 114.470766,104.129814 L114.470766,81.2025548 Z M40.4055925,105.474928 L34.3977102,105.474928 L34.3977102,33.2479026 L40.4055925,23.0856028 L40.4055925,105.474928 Z M28.9665845,105.474928 L22.9587022,105.474928 L22.9587022,52.5969214 L28.9665845,42.4346216 L28.9665845,105.474928 Z M17.5275766,105.474928 L11.5196942,105.474928 L11.5196942,71.9459402 L17.5275766,61.7836404 L17.5275766,105.474928 Z M6.08856859,104.257855 C0.358838805,101.340233 -1.39616996,93.7956052 1.74216569,88.4845756 L6.08856859,81.1326592 L6.08856859,104.257855 Z" id="Combined-Shape" fill="url(#linearGradient-1)"></path>
            </g>
            <g id="arrow-up" transform="translate(63.304613, 181.410186) scale(1, -1) translate(-63.304613, -181.410186) translate(2.804613, 128.410186)">
                <path d="M107.309677,43.2075847 L24.7046485,-5.62794483 C17.9929899,-9.59392488 7.71429604,-5.74528152 7.71429604,4.0640656 L7.71429604,101.711657 C7.71429604,110.511909 17.2655024,115.815527 24.7046485,111.403668 L107.309677,62.5916056 C114.678421,58.2501481 114.701888,47.5490422 107.309677,43.2075847 Z" id="Mask" transform="translate(60.279667, 52.909557) rotate(-90.000000) translate(-60.279667, -52.909557) "></path>
                <path d="M51.8446005,4.12108564 L51.8446005,105.474928 L45.8367182,105.474928 L45.8367182,13.8988838 L50.5776952,5.87954727 C50.9547941,5.23746005 51.3798743,4.65132155 51.8446005,4.12108564 Z M57.2757261,0.739849794 C59.237507,0.208818053 61.3226667,0.212547307 63.2836093,0.749667099 L63.2836085,105.474928 L57.2757261,105.474928 L57.2757261,0.739851055 Z M68.7147341,4.1484473 C69.1716912,4.67160806 69.5900127,5.24865611 69.9617161,5.87954727 L74.7226165,13.9364556 L74.7226165,105.474928 L68.7147341,105.474928 L68.7147341,4.1484473 Z M80.1537421,23.1275913 L86.1616244,33.2947768 L86.1616244,105.474928 L80.1537421,105.474928 L80.1537421,23.1275913 Z M91.5927501,42.4859124 L97.6006324,52.6530979 L97.6006324,105.474928 L91.5927501,105.474928 L91.5927501,42.4859124 Z M103.031758,61.8442336 L109.03964,72.0114191 L109.03964,105.474928 L103.031758,105.474928 L103.031758,61.8442336 Z M114.470766,81.2025548 L118.773778,88.4845756 C122.18216,94.2316873 119.79202,101.239347 114.470766,104.129814 L114.470766,81.2025548 Z M40.4055925,105.474928 L34.3977102,105.474928 L34.3977102,33.2479026 L40.4055925,23.0856028 L40.4055925,105.474928 Z M28.9665845,105.474928 L22.9587022,105.474928 L22.9587022,52.5969214 L28.9665845,42.4346216 L28.9665845,105.474928 Z M17.5275766,105.474928 L11.5196942,105.474928 L11.5196942,71.9459402 L17.5275766,61.7836404 L17.5275766,105.474928 Z M6.08856859,104.257855 C0.358838805,101.340233 -1.39616996,93.7956052 1.74216569,88.4845756 L6.08856859,81.1326592 L6.08856859,104.257855 Z" id="Combined-Shape" fill="url(#linearGradient-2)"></path>
            </g>
        </g>
    </g>
</svg>